HIERARCHY
ROOT Hips
{
  OFFSET -1024.88 92.1664 384.082
  CHANNELS 6 Xposition Yposition Zposition Zrotation Xrotation Yrotation
  JOINT RightUpLeg
  {
    OFFSET -8.9458 -8.66707 0.101652
    CHANNELS 3 Zrotation Xrotation Yrotation
    JOINT RightLeg
    {
      OFFSET 0 -44.4227 1.3727
      CHANNELS 3 Zrotation Xrotation Yrotation
      JOINT RightFoot
      {
        OFFSET 0.253549 -42.0924 -1.46059
        CHANNELS 3 Zrotation Xrotation Yrotation
        JOINT RightToes
        {
          OFFSET 0.04 -4.41509 8.4991
          CHANNELS 3 Zrotation Xrotation Yrotation
          End Site
          {
            OFFSET -0.08 -0.137448 9.77979
          }
        }
      }
    }
  }
  JOINT Spine
  {
    OFFSET 0 11.8905 0
    CHANNELS 3 Zrotation Xrotation Yrotation
    JOINT Spine1
    {
      OFFSET 0 25.6574 0.127663
      CHANNELS 3 Zrotation Xrotation Yrotation
      JOINT HEad
      {
        OFFSET 0 8.73416 0.011341
        CHANNELS 3 Zrotation Xrotation Yrotation
        End Site
        {
          OFFSET -0.29 12.7742 2.51395
        }
      }
      JOINT LeftShoulder1
      {
        OFFSET 8.99 -0.362252 -0.22
        CHANNELS 3 Zrotation Xrotation Yrotation
        JOINT LeftArm
        {
          OFFSET 10.2827 -0.00338 0.322123
          CHANNELS 3 Zrotation Xrotation Yrotation
          JOINT LeftForeArm
          {
            OFFSET 32.7669 0.099144 -1.42434
            CHANNELS 3 Zrotation Xrotation Yrotation
            JOINT LeftHand
            {
              OFFSET 27.5643 0.085362 1.02216
              CHANNELS 3 Zrotation Xrotation Yrotation
              End Site
              {
                OFFSET 16.7443 -0.6 1.50291
              }
            }
          }
        }
      }
      JOINT RightShoulder
      {
        OFFSET -8.99 -0.362252 -0.22
        CHANNELS 3 Zrotation Xrotation Yrotation
        JOINT RightArm
        {
          OFFSET -10.2827 -0.00338 0.322123
          CHANNELS 3 Zrotation Xrotation Yrotation
          JOINT RightForeArm
          {
            OFFSET -32.8971 0.099144 -1.42434
            CHANNELS 3 Zrotation Xrotation Yrotation
            JOINT RightHand
            {
              OFFSET -27.4921 0.085362 1.02216
              CHANNELS 3 Zrotation Xrotation Yrotation
              End Site
              {
                OFFSET -16.6312 -0.6 1.50291
              }
            }
          }
        }
      }
    }
  }
  JOINT LeftUpLeg
  {
    OFFSET 8.9458 -8.66707 0.101652
    CHANNELS 3 Zrotation Xrotation Yrotation
    JOINT LeftLeg
    {
      OFFSET 0 -44.4227 1.3727
      CHANNELS 3 Zrotation Xrotation Yrotation
      JOINT LeftFoot
      {
        OFFSET -0.253549 -42.0924 -1.46059
        CHANNELS 3 Zrotation Xrotation Yrotation
        JOINT LeftToes
        {
          OFFSET -0.04 -4.41509 8.4991
          CHANNELS 3 Zrotation Xrotation Yrotation
          End Site
          {
            OFFSET 0.08 -0.047448 9.77979
          }
        }
      }
    }
  }
}
MOTION
Frames:	21
Frame Time:	0.0166667
-1036.53 88.9577 415.811 -8.37414 -16.6725 -8.79816 -19.1111 -7.60917 -14.7279 2.14929 54.2506 7.37657 30.9052 0.894066 -0.0381738 0.0462048 0.000533403 0.662642 2.90402 -2.29179 4.99177 0.00169971 -6.63151e-007 0.00489996 -1.67013 25.5156 34.2647 1.19271e-015 3.18055e-015 -3.97569e-016 -123.521 -53.5235 -128.915 -49.4965 50.9915 -58.6949 6.08953 20.977 -0.626358 25.8299 6.33357 10.3019 59.7115 -16.0077 58.8761 28.0994 35.1638 67.0044 -4.32943 20.3288 -1.33303 20.3642 -19.0645 5.70402 -13.3236 44.8787 11.8178 3.03934 -2.97555 0.0221717 -1.18447e-009 1.5602e-007 -4.87131e-009 
-1036.01 88.3892 413.987 -7.78095 -16.5365 -8.70712 -19.9644 -11.631 -17.7554 0.388266 62.1899 11.1772 22.5489 1.3841 -0.425899 0.0462048 0.000533403 0.662642 2.51069 -1.82348 4.69973 0.00169971 -6.63151e-007 0.00489996 -1.22808 26.3977 34.1308 1.98785e-016 3.18055e-015 3.97569e-016 -126.501 -54.7318 -132.056 -50.616 52.0615 -58.0809 6.45505 20.7328 -0.542888 25.4869 6.51209 10.6697 60.9112 -16.9999 60.8076 28.751 35.6605 67.0853 -4.46785 20.1361 -1.13037 20.254 -20.0236 5.96116 -12.5517 43.1467 11.1987 -7.79285 -3.23758 -0.331399 -1.18446e-009 1.5602e-007 -4.87131e-009 
-1035.6 87.5964 412.102 -7.10059 -16.4055 -8.43068 -21.1416 -14.6161 -20.3052 -1.49252 69.1355 16.022 23.8817 2.21811 -0.304983 0.0462048 0.000533403 0.662642 2.05433 -1.32051 4.37809 0.00169971 -6.63151e-007 0.00489996 -0.794884 27.0992 33.8994 -1.98785e-016 0 -7.95139e-016 -129.162 -55.7999 -134.839 -51.1795 52.8081 -57.7883 6.59306 20.5035 -0.490944 25.2861 6.59539 11.1829 62.1528 -18.0929 62.622 29.3136 36.2608 66.9372 -4.63753 20.0866 -0.941948 19.0525 -21.7288 6.26774 -12.077 42.2234 11.948 -2.83683 -3.92949 -0.425826 -1.18446e-009 1.5602e-007 -4.87131e-009 
-1035.14 86.7749 410.172 -6.36855 -16.2663 -7.96518 -21.6462 -16.8098 -21.4519 -3.75886 72.987 19.8255 26.1491 2.75947 -0.446833 0.0462048 0.000533403 0.662642 1.58346 -0.808283 4.03292 0.00169971 -6.63151e-007 0.00489996 -0.334496 27.6826 33.5466 1.98785e-016 0 3.97569e-016 -131.491 -56.7716 -137.287 -51.339 53.2488 -57.7201 6.60328 20.3132 -0.541277 25.3622 6.62211 11.6373 67.3794 -20.6202 67.4741 32.4595 39.6178 62.0982 -4.99357 19.8098 -0.403546 18.4507 -22.9862 6.43089 -11.2609 40.6306 12.1379 -9.88761 -4.27318 -0.770959 -1.18447e-009 1.5602e-007 -4.87131e-009 
-1034.68 86.0435 408.176 -5.64218 -16.1087 -7.32842 -21.541 -18.1116 -21.3598 -4.99751 73.9252 21.7297 29.344 3.09616 -0.593264 0.0462048 0.000533403 0.662642 1.15309 -0.297754 3.67968 0.00169971 -6.63151e-007 0.00489996 0.201739 28.1887 33.0544 -5.96354e-016 0 -3.97569e-016 -133.468 -57.6645 -139.422 -51.2301 53.4371 -57.7992 6.46655 20.1765 -0.679091 25.5263 6.55528 12.1777 71.1684 -22.3823 70.9135 34.7573 41.9796 59.0126 -5.36262 19.6237 0.00869146 17.1135 -24.4511 6.51211 -10.4096 39.1454 13.0565 -8.29248 -4.85649 -0.916094 -1.18446e-009 1.5602e-007 -4.87131e-009 
-1034.19 85.3187 406.171 -4.94611 -15.931 -6.53538 -20.9959 -18.6755 -20.2067 -4.65023 72.9001 21.467 33.2668 3.25146 -0.698449 0.0462048 0.000533403 0.662642 0.788145 0.204025 3.32874 0.00169971 -6.63151e-007 0.00489996 0.841318 28.6504 32.4216 -2.98177e-016 -3.18055e-015 -0 -135.103 -58.492 -141.27 -50.9875 53.4455 -57.9676 6.28916 20.0683 -0.944408 25.7123 6.40364 12.7425 73.9882 -23.6917 73.3759 36.3003 43.6757 57.2425 -5.81526 19.3388 0.572241 15.4156 -25.4302 7.24646 -7.70648 37.1362 12.1976 -13.931 -5.16605 -1.22961 -1.18446e-009 1.5602e-007 -4.87132e-009 
-1033.68 84.6887 404.135 -4.31738 -15.7316 -5.61326 -20.0113 -18.5897 -18.1915 -3.3489 70.4448 19.682 37.7441 3.38411 -0.81607 0.0462048 0.000533403 0.662642 0.532107 0.692194 2.9885 0.00187971 0.000139333 0.00494997 1.59852 29.0853 31.6566 5.96354e-016 0 -0 -136.439 -59.2456 -142.868 -50.7392 53.3511 -58.1812 6.09967 19.9604 -1.31051 25.9848 6.20407 13.2862 76.1182 -24.6688 75.1244 37.1945 45.0385 56.2818 -19.553 13.1734 19.1087 13.5215 -26.5589 7.82379 -5.13131 35.2218 11.9335 -15.5358 -5.70769 -1.48526 -1.18447e-009 1.5602e-007 -4.87132e-009 
-1033.1 84.1027 402.093 -3.81198 -15.5171 -4.59849 -18.6657 -18.0242 -15.4917 -2.03758 67.1553 17.2672 42.6885 3.47814 -0.92733 0.0462048 0.000533403 0.662642 1.33338 1.57925 3.57357 0.0754128 0.0290395 0.0769521 2.03706 29.0672 29.6543 7.45443e-017 0 9.93923e-017 -137.706 -58.9343 -143.271 -50.5707 53.2532 -58.4294 5.98411 19.8043 -1.77438 25.558 5.22257 13.0161 77.7216 -25.2608 76.2229 36.7351 43.9249 60.9909 -4.63326 19.8316 -0.653004 11.865 -27.4482 8.25443 -2.57312 32.9469 11.8344 -20.4563 -6.02387 -1.83888 -1.18446e-009 1.5602e-007 -4.87131e-009 
-1032.44 83.6204 400.011 -3.47694 -15.3032 -3.52868 -16.9638 -17.0361 -12.2813 -1.19829 63.239 14.5742 48.0855 3.65546 -1.11263 0.0462048 0.000533403 0.662642 2.17979 2.3828 4.00846 -0.00162063 -0.00178959 -0.0030902 2.75706 29.1457 27.917 4.96962e-017 0 -0 -138.6 -58.7875 -143.618 -50.5658 53.2052 -58.6709 5.94422 19.5579 -2.27573 25.41 4.46545 12.7285 79.1633 -25.5307 77.0754 36.3649 43.8753 63.7279 -11.3078 17.9647 8.29229 9.98473 -28.4413 8.4778 -0.0606402 30.8773 12.2965 -22.2826 -6.60896 -2.10831 -1.18447e-009 1.5602e-007 -4.87132e-009 
-1031.68 83.1735 397.897 -3.33893 -15.1144 -2.43883 -14.9723 -15.7343 -8.71238 -1.014 59.0598 11.7143 53.9623 3.90324 -1.37833 0.0462048 0.000533403 0.662642 3.11277 3.12198 4.29487 -0.00494088 -0.00309878 -0.0089603 4.99081 29.862 26.356 1.98785e-016 0 -7.95139e-016 -139.24 -58.5345 -143.688 -50.7908 53.2548 -58.8704 5.9868 19.1554 -2.73426 25.3743 3.82569 12.2609 80.4951 -25.5736 77.8225 36.0294 44.5824 65.1595 -3.35397 20.3674 -2.15368 8.1328 -29.3228 8.52252 2.31636 28.7693 13.1321 -24.325 -7.19112 -2.32226 -1.18446e-009 1.5602e-007 -4.87132e-009 
-1030.85 82.8487 395.814 -3.41016 -14.9881 -1.35756 -12.8344 -14.3639 -4.95568 -1.75407 54.9686 8.94641 60.3535 4.25559 -1.75556 0.0462048 0.000533403 0.662642 4.07226 3.8658 4.48406 -0.0235206 0.00587029 -0.00188864 8.73584 31.0376 24.9569 9.93923e-017 3.18055e-015 -7.95139e-016 -139.763 -58.2316 -143.497 -51.3367 53.579 -59.1729 6.09418 18.6068 -3.10589 22.5314 2.57706 12.9666 85.191 -25.8356 82.6186 38.7762 44.1606 60.8486 -9.05547 19.2028 4.37268 6.24448 -30.364 8.39799 4.05279 27.9975 13.3659 -22.6692 -7.79553 -2.28167 -1.18446e-009 1.5602e-007 -4.87131e-009 
-1029.98 82.7223 393.793 -3.60857 -14.9162 -0.245146 -10.991 -13.5222 -1.38538 -3.38181 51.5115 6.69943 67.3393 4.68293 -2.26967 0.0462048 0.000533403 0.662642 5.03254 4.66481 4.63134 -0.0236402 0.0184793 0.00536306 12.6018 31.978 23.4962 5.96354e-016 -1.59028e-015 -0 -140.377 -57.9482 -143.244 -52.0306 54.0766 -59.6175 6.21637 18.0249 -3.45733 18.0453 0.84559 14.8329 93.1235 -26.6993 90.0189 43.337 43.7211 53.2309 -12.1425 18.4224 7.24288 4.46121 -31.4405 8.15218 5.54708 27.5374 13.4434 -21.1853 -8.50057 -2.1305 -1.18446e-009 1.5602e-007 -4.87132e-009 
-1029.09 82.9253 391.867 -3.90618 -14.8897 0.871683 -9.42652 -13.2344 1.89843 -5.32454 48.8497 4.68612 74.5236 5.15999 -2.91124 0.0462048 0.000533403 0.662642 6.11789 5.31321 4.78874 -0.00340005 0.0279287 0.00978384 16.4979 32.9123 21.8926 -1.98785e-016 3.18055e-015 -1.59028e-015 -141.058 -57.8802 -142.407 -52.8449 55.0318 -60.4292 6.39098 17.2587 -3.80072 16.7729 1.72795 16.1337 98.6814 -27.1062 99.1689 48.4291 43.776 45.6384 -13.825 17.9527 8.00896 2.83247 -32.4437 7.85054 6.80719 27.3883 13.3647 -19.7088 -9.23368 -1.96706 -1.18446e-009 1.5602e-007 -4.87131e-009 
-1028.1 83.7424 390.037 -4.26048 -14.8942 1.95658 -7.65629 -13.9695 5.05104 -7.34419 47.9781 3.03653 74.3461 5.34082 -2.75055 0.0462048 0.000533403 0.662642 7.34856 5.93292 4.98623 0.01007 0.0316284 0.011754 20.3471 33.7061 20.1892 1.98785e-016 -1.59028e-015 -1.59028e-015 -141.85 -57.9087 -141.035 -56.3991 56.4539 -59.8615 4.22546 12.6532 -5.13459 18.8568 4.35137 16.5777 101.002 -27.3475 107.452 54.1216 44.6473 39.0512 -14.8793 17.8079 7.72852 1.29487 -32.6497 7.57385 7.6073 26.601 13.3494 -17.9193 -9.49232 -1.70323 -1.18447e-009 1.5602e-007 -4.87132e-009 
-1027.17 86.4223 388.511 -4.56973 -14.8995 2.97277 -5.60228 -14.8865 8.21781 -8.93382 48.4892 1.04704 69.3981 5.07175 -1.97891 0.0462048 0.000533403 0.662642 8.57091 6.41631 5.25925 0.00936977 0.0206892 0.00565256 23.6211 34.1635 18.7268 -7.95139e-016 1.59028e-015 1.59028e-015 -142.84 -58.037 -139.692 -59.4781 57.8744 -59.5944 7.60351 16.6421 -4.87184 20.5292 5.9744 17.626 101.77 -29.2897 112.523 58.6699 45.3522 35.0234 -9.66802 18.1497 1.62518 0.0031844 -31.853 7.44314 8.07158 25.3228 13.1597 -16.1005 -9.34887 -1.41738 -1.18447e-009 1.5602e-007 -4.87131e-009 
-1026.28 88.723 387.016 -4.86513 -14.9598 3.92111 -3.35001 -15.6419 11.0385 -9.69847 50.2272 -1.28884 61.0904 4.38929 -1.03099 0.0462048 0.000533403 0.662642 9.7679 6.81567 5.5438 0.000269269 0.00495077 -0.00567934 26.2859 34.3483 17.5749 3.97569e-016 -2.38542e-015 -1.59028e-015 -143.804 -58.207 -138.544 -62.0772 58.979 -59.3883 10.175 19.6688 -4.49336 21.7975 6.84635 18.0255 101.212 -31.3487 114.499 61.3899 46.2931 33.3671 -6.67787 18.1007 -2.08117 -1.36974 -30.5521 7.34708 8.72562 24.3262 12.2383 -10.3048 -8.8336 -0.603802 -1.18447e-009 1.5602e-007 -4.87132e-009 
-1025.47 90.7764 385.533 -5.05685 -15.0764 4.82327 -1.23328 -16.0308 13.3803 -9.49014 51.5504 -4.03546 51.5997 3.57081 -0.243183 0.0462048 0.000533403 0.662642 10.7895 7.17416 5.80939 -0.010011 -0.00572827 -0.0127805 28.3343 34.2851 16.7848 2.20695e-032 -7.95139e-016 1.59028e-015 -144.562 -58.3157 -137.678 -64.1361 59.5837 -59.1312 11.9949 21.9758 -3.99065 22.5792 7.06324 17.4972 99.412 -32.8668 113.838 62.2103 47.4046 33.8575 -5.20262 18.0025 -4.22823 -2.77521 -29.028 7.34652 9.80023 23.7064 10.3753 -3.19663 -7.82774 0.303439 -1.18447e-009 1.5602e-007 -4.87131e-009 
-1024.88 92.1664 384.082 -5.05081 -15.2473 5.65016 -0.971284 -14.8888 14.1921 -4.81232 52.8671 -9.01128 54.2009 3.58758 -0.442176 0.0462048 0.000533403 0.662642 11.3542 7.41895 5.9813 -0.0182515 -0.0145669 -0.0226315 28.397 33.6695 17.0047 -7.95139e-016 0 -0 -144.933 -58.1741 -137.47 -55.2387 58.4369 -64.7667 9.32403 18.3398 -4.63767 21.6096 5.57166 15.3062 93.962 -32.9016 106.116 56.4689 48.3616 41.2523 -7.08155 18.1485 -2.73281 -3.31918 -28.0887 7.59995 12.8903 25.9669 6.16689 -8.01081 -7.35589 -0.302972 -1.18446e-009 1.5602e-007 -4.87132e-009 
-1024.28 93.2458 382.471 -4.89185 -15.4689 6.45924 -1.74157 -13.5309 13.4451 0.609843 52.845 -12.6723 55.3574 3.54393 -0.703581 0.0462048 0.000533403 0.662642 11.5344 7.58818 6.0368 -0.0192223 -0.0148081 -0.0263414 26.7472 32.6323 17.9771 1.78906e-015 -7.95139e-016 -3.18055e-015 -145 -57.9751 -137.626 -50.2424 57.1544 -67.4594 7.85342 16.8957 -5.38838 20.7206 4.37467 13.5779 85.6108 -32.023 95.7129 46.1995 47.7052 53.3702 -6.82962 18.1077 -2.95973 -3.83206 -27.342 7.87439 15.7055 27.102 2.61896 -8.6298 -6.90029 -0.1217 -1.18447e-009 1.5602e-007 -4.87131e-009 
-1023.7 93.8593 380.769 -4.63465 -15.7368 7.2908 -3.51645 -11.9262 11.2798 5.02652 51.3049 -13.3388 55.9378 3.53435 -1.00236 0.0462048 0.000533403 0.662642 11.4902 7.63101 5.99302 -0.0170455 -0.0113753 -0.0272854 23.6514 31.3377 19.3718 -1.98785e-016 0 -3.18055e-015 -144.702 -57.8774 -137.814 -47.5301 56.0272 -68.4191 6.48296 15.868 -5.19693 20.1391 3.55582 12.3079 80.1903 -30.6288 89.0224 39.6889 46.0095 61.0866 -7.8492 18.2048 -1.72138 -3.86455 -26.6437 8.20311 17.8388 27.5696 -0.306147 -11.431 -6.76084 -0.326004 -1.18446e-009 1.5602e-007 -4.87131e-009 
-1023.14 94.0929 379.051 -4.33372 -16.0328 8.15156 -5.69382 -10.7145 8.96858 8.97672 49.5358 -12.159 56.4001 3.51437 -1.32739 0.0462048 0.000533403 0.662642 11.3066 7.56169 5.8656 -0.0135141 -0.00801697 -0.0272161 19.3218 29.8715 20.9997 -3.97569e-016 7.95139e-016 -0 -144.075 -57.9321 -137.974 -46.1762 55.111 -68.4331 5.70913 15.8118 -5.39163 19.9063 3.0658 11.3548 76.9217 -29.3375 84.8952 35.8605 44.3413 65.6839 -7.51419 18.2209 -1.63483 -3.78287 -26.0827 8.45812 19.3239 27.6167 -2.51943 -13.2498 -6.79468 -0.416887 -1.18446e-009 1.5602e-007 -4.87132e-009 
